<svg xmlns="http://www.w3.org/2000/svg" xmlns:xlink="http://www.w3.org/1999/xlink" viewBox="0 0 1200 430" role="img" aria-labelledby="title desc">
  <title id="title">David's binary neofetch</title>
  <desc id="desc">A Catppuccin terminal card with a sphere made of binary digits and David's technical profile.</desc>
  <defs>
    <linearGradient id="panel" x1="0" y1="0" x2="1" y2="1">
      <stop offset="0" stop-color="#1e1e2e"/>
      <stop offset="1" stop-color="#181825"/>
    </linearGradient>
    <radialGradient id="sphere" cx="42%" cy="38%" r="68%">
      <stop offset="0" stop-color="#313244"/>
      <stop offset=".72" stop-color="#1e1e2e"/>
      <stop offset="1" stop-color="#11111b"/>
    </radialGradient>
    <radialGradient id="core" cx="45%" cy="42%" r="65%">
      <stop offset="0" stop-color="#89dceb" stop-opacity=".75"/>
      <stop offset=".3" stop-color="#74c7ec" stop-opacity=".28"/>
      <stop offset="1" stop-color="#74c7ec" stop-opacity="0"/>
    </radialGradient>
    <pattern id="binary" width="34" height="28" patternUnits="userSpaceOnUse">
      <text x="3" y="18" fill="#bac2de" font-family="Courier New,Courier,Consolas,monospace" font-size="15">0</text>
      <text x="20" y="18" fill="#89dceb" font-family="Courier New,Courier,Consolas,monospace" font-size="15">1</text>
    </pattern>
    <filter id="shadow" x="-20%" y="-20%" width="140%" height="150%">
      <feDropShadow dx="0" dy="12" stdDeviation="14" flood-color="#11111b" flood-opacity=".55"/>
    </filter>
    <filter id="glow" x="-100%" y="-100%" width="300%" height="300%">
      <feGaussianBlur stdDeviation="8"/>
    </filter>
    <clipPath id="circleClip">
      <circle cx="238" cy="215" r="148"/>
    </clipPath>
    <path id="orbitWide" d="M 62 215 A 176 78 0 1 1 414 215 A 176 78 0 1 1 62 215"/>
    <path id="orbitTall" d="M 238 86 A 62 129 0 1 1 238 344 A 62 129 0 1 1 238 86"/>
    <path id="orbitTilt" d="M 72 154 A 180 72 -22 1 1 404 276 A 180 72 -22 1 1 72 154"/>
  </defs>

  <rect x="18" y="18" width="1164" height="394" rx="18" fill="url(#panel)" stroke="#45475a" stroke-width="2" filter="url(#shadow)"/>
  <rect x="18" y="18" width="1164" height="54" rx="18" fill="#313244"/>
  <path d="M18 54h1164v18H18z" fill="#313244"/>
  <circle cx="52" cy="45" r="9" fill="#f38ba8"/>
  <circle cx="82" cy="45" r="9" fill="#f9e2af"/>
  <circle cx="112" cy="45" r="9" fill="#a6e3a1"/>
  <text x="600" y="50" text-anchor="middle" fill="#bac2de" font-family="Courier New,Courier,Consolas,monospace" font-size="16">david@aletheia: ~ — neofetch</text>

  <circle cx="238" cy="215" r="148" fill="url(#sphere)" stroke="#45475a" stroke-width="2"/>
  <rect x="84" y="61" width="308" height="308" fill="url(#binary)" clip-path="url(#circleClip)" opacity=".38"/>
  <g fill="none" stroke-linecap="round">
    <ellipse cx="238" cy="215" rx="176" ry="78" stroke="#cba6f7" stroke-width="2" opacity=".7"/>
    <ellipse cx="238" cy="215" rx="62" ry="129" stroke="#89dceb" stroke-width="2" opacity=".58"/>
    <ellipse cx="238" cy="215" rx="180" ry="72" transform="rotate(20 238 215)" stroke="#f5c2e7" stroke-width="2" opacity=".52"/>
  </g>
  <g font-family="Courier New,Courier,Consolas,monospace" font-size="15" letter-spacing="4">
    <text fill="#cba6f7" opacity=".96"><textPath xlink:href="#orbitWide" startOffset="4%">0101 1010 0110 1101 0101 1010 0110 1101 0101</textPath></text>
    <text fill="#89dceb" opacity=".92"><textPath xlink:href="#orbitTall" startOffset="12%">1011 0010 1110 0101 1011 0010 1110</textPath></text>
    <text fill="#f5c2e7" opacity=".88"><textPath xlink:href="#orbitTilt" startOffset="8%">0011 0101 1001 0110 0011 0101 1001</textPath></text>
  </g>
  <circle cx="62" cy="215" r="4" fill="#cba6f7"/>
  <circle cx="238" cy="86" r="4" fill="#89dceb"/>
  <circle cx="404" cy="276" r="4" fill="#f5c2e7"/>
  <circle cx="238" cy="215" r="104" fill="url(#core)" opacity=".34" filter="url(#glow)"/>
  <circle cx="238" cy="215" r="18" fill="#89dceb" opacity=".25" filter="url(#glow)"/>
  <circle cx="238" cy="215" r="13" fill="#89dceb" opacity=".72"/>
  <circle cx="234" cy="211" r="5" fill="#cdd6f4" opacity=".78"/>
  <text x="238" y="395" text-anchor="middle" fill="#6c7086" font-family="Courier New,Courier,Consolas,monospace" font-size="13">01001001 · 01000001 · 010</text>

  <g font-family="Courier New,Courier,Consolas,monospace">
    <text x="478" y="112" fill="#a6e3a1" font-size="20">david@aletheia</text><text x="650" y="112" fill="#cdd6f4" font-size="20">:~$ neofetch</text>
    <text x="478" y="151" fill="#f5c2e7" font-size="19">David Uriel Ramirez Xochipa</text>
    <text x="478" y="183" fill="#bac2de" font-size="16">────────────────────────────────────────</text>

    <text x="478" y="218" fill="#89dceb" font-size="17">OS</text><text x="610" y="218" fill="#cdd6f4" font-size="17">Aletheia / México</text>
    <text x="478" y="247" fill="#89dceb" font-size="17">ROLE</text><text x="610" y="247" fill="#cdd6f4" font-size="17">backend · producto · IA</text>
    <text x="478" y="276" fill="#89dceb" font-size="17">STACK</text><text x="610" y="276" fill="#cdd6f4" font-size="17">Go · Python · TypeScript</text>
    <text x="478" y="305" fill="#89dceb" font-size="17">DATA</text><text x="610" y="305" fill="#cdd6f4" font-size="17">SQL · NoSQL · PostgreSQL</text>
    <text x="478" y="334" fill="#89dceb" font-size="17">INFRA</text><text x="610" y="334" fill="#cdd6f4" font-size="17">Docker · OpenAPI · Actions</text>
    <text x="478" y="375" fill="#f9e2af" font-size="17">STATUS</text><text x="610" y="375" fill="#a6e3a1" font-size="17">building useful things ●</text>
  </g>
</svg>
